HIERARCHY
ROOT Hips
{
	OFFSET -3.958830 18.904000 13.208200
	CHANNELS 6 Xposition Yposition Zposition Zrotation Yrotation Xrotation 
	JOINT LHipJoint
	{
		OFFSET 0.000000 0.000000 0.000000
		CHANNELS 3 Zrotation Yrotation Xrotation
		JOINT LeftUpLeg
		{
			OFFSET 1.800000 -1.400000 0.085000
			CHANNELS 3 Zrotation Yrotation Xrotation
			JOINT LeftLeg
			{
				OFFSET 2.215000 -6.000000 0.000000
				CHANNELS 3 Zrotation Yrotation Xrotation
				JOINT LeftFoot
				{
					OFFSET 2.500000 -6.900000 0.000000
					CHANNELS 3 Zrotation Yrotation Xrotation
					JOINT LeftToeBase
					{
						OFFSET 0.200000 -0.500000 1.950000
						CHANNELS 3 Zrotation Yrotation Xrotation
						End Site
						{
							OFFSET 0.000000 0.000000 0.000000
						}
					}
				}
			}
		}
	}
	JOINT RHipJoint
	{
		OFFSET 0.000000 0.000000 0.000000
		CHANNELS 3 Zrotation Yrotation Xrotation
		JOINT RightUpLeg
		{
			OFFSET -1.800000 -1.400000 0.085000
			CHANNELS 3 Zrotation Yrotation Xrotation
			JOINT RightLeg
			{
				OFFSET -2.215000 -6.000000 0.000000
				CHANNELS 3 Zrotation Yrotation Xrotation
				JOINT RightFoot
				{
					OFFSET -2.500000 -6.900000 0.000000
					CHANNELS 3 Zrotation Yrotation Xrotation
					JOINT RightToeBase
					{
						OFFSET -0.200000 -0.500000 1.950000
						CHANNELS 3 Zrotation Yrotation Xrotation
						End Site
						{
							OFFSET 0.000000 0.000000 0.000000
						}
					}
				}
			}
		}
	}
	JOINT LowerBack
	{
		OFFSET 0.000000 0.000000 0.000000
		CHANNELS 3 Zrotation Yrotation Xrotation
		JOINT Spine
		{
			OFFSET -0.087000 1.940000 -0.288900
			CHANNELS 3 Zrotation Yrotation Xrotation
			JOINT Spine1
			{
				OFFSET 0.000000 1.950000 0.060000
				CHANNELS 3 Zrotation Yrotation Xrotation
				JOINT Neck
				{
					OFFSET 0.000000 0.000000 0.000000
					CHANNELS 3 Zrotation Yrotation Xrotation
					JOINT Neck1
					{
						OFFSET 0.000000 1.600000 0.340000
						CHANNELS 3 Zrotation Yrotation Xrotation
						JOINT Head
						{
							OFFSET 0.000000 1.667000 -0.240000
							CHANNELS 3 Zrotation Yrotation Xrotation
							End Site
							{
								OFFSET 0.000000 0.000000 0.000000
							}
						}
					}
				}
				JOINT LeftShoulder
				{
					OFFSET 0.000000 0.000000 0.000000
					CHANNELS 3 Zrotation Yrotation Xrotation
					JOINT LeftArm
					{
						OFFSET 2.700000 1.550000 -0.730000
						CHANNELS 3 Zrotation Yrotation Xrotation
						JOINT LeftForeArm
						{
							OFFSET 5.450000 0.000000 0.000000
							CHANNELS 3 Zrotation Yrotation Xrotation
							JOINT LeftHand
							{
								OFFSET 3.450000 0.000000 0.000000
								CHANNELS 3 Zrotation Yrotation Xrotation
								JOINT LeftHandIndex1
								{
									OFFSET 0.750000 0.000000 0.000000
									CHANNELS 3 Zrotation Yrotation Xrotation
									End Site
									{
										OFFSET 0.000000 0.000000 0.000000
									}
								}
							}
						}
					}
				}
				JOINT RightShoulder
				{
					OFFSET 0.000000 0.000000 0.000000
					CHANNELS 3 Zrotation Yrotation Xrotation
					JOINT RightArm
					{
						OFFSET -2.700000 1.550000 -0.730000
						CHANNELS 3 Zrotation Yrotation Xrotation
						JOINT RightForeArm
						{
							OFFSET -5.450000 0.000000 0.000000
							CHANNELS 3 Zrotation Yrotation Xrotation
							JOINT RightHand
							{
								OFFSET -3.450000 0.000000 0.000000
								CHANNELS 3 Zrotation Yrotation Xrotation
								JOINT RightHandIndex1
								{
									OFFSET -0.750000 0.000000 0.000000
									CHANNELS 3 Zrotation Yrotation Xrotation
									End Site
									{
										OFFSET 0.000000 0.000000 0.000000
									}
								}
							}
						}
					}
				}
			}
		}
	}
}
MOTION
Frames: 8
Frame Time: 0.016667
22.832390 22.331590 -25.812810 23.582005 -12.662893 -74.639014 -11.570249 9.449653 1.946158 -45.278966 18.462972 -21.357169 36.367810 0.870891 127.392730 23.822251 7.507379 -3.644043 -23.262800 8.254400 -32.036970 22.677066 -8.106926 6.283747 -37.525996 22.765225 -52.272448 83.338378 -84.584822 79.034140 1.298618 -20.676943 -23.597101 10.566150 -7.014590 13.839720 -9.572871 20.695605 -11.996702 24.650646 -71.388038 137.459857 -26.607429 12.244173 31.270016 33.703396 0.057606 -23.436072 -123.399005 -14.424322 58.259811 131.334230 -29.406250 -156.862050 -175.311691 -55.120475 -151.627031 2.948744 45.851593 -55.972556 166.586243 -22.739187 -149.509128 -2.788192 5.562317 -13.523720 2.669070 18.652940 -2.567060 -101.777061 64.749977 -20.363926 -145.463805 -48.995828 51.673894 139.557172 -8.967131 141.971011 20.701962 -11.563633 7.819220 -14.126910 0.783960 20.863870 
22.794530 22.578070 -25.714050 10.076536 -3.488398 -66.908233 -12.629479 7.280281 4.133774 -51.041506 7.556591 -22.645705 28.040010 0.916943 127.636016 19.519743 10.080800 -3.463439 -22.187390 4.305670 -29.493400 21.270201 -9.468348 8.937186 -50.477078 13.462677 -54.510280 74.419506 -84.378246 82.093240 1.553183 -17.619830 -17.869817 8.838660 -3.007910 10.102150 -6.576983 8.375368 -10.702409 5.967598 -57.139583 147.033313 -33.267012 6.119964 26.302111 53.168115 7.551107 -12.886848 -114.997681 -6.768716 35.154064 132.009100 -18.626520 -173.380110 173.040044 -39.120437 -179.196751 83.729288 62.568908 99.052390 153.398395 -4.622711 -138.677212 -1.762503 -2.824787 -12.727701 3.841930 14.805820 -2.880110 -98.845174 39.504409 -31.390252 -140.145548 -62.262139 13.772512 144.778785 -20.174417 143.437038 19.891711 -0.578075 6.288830 -8.349630 2.585060 18.059640 
22.483440 22.714060 -25.697170 36.973659 -2.217199 -70.490617 -15.200618 11.341156 2.123405 -57.891152 19.958208 -26.172097 23.798083 9.852444 126.747522 23.244509 8.442336 -1.106942 -20.080740 8.371280 -25.468750 19.270565 -3.961622 8.753476 -56.806107 19.106396 -66.103529 67.539686 -84.693113 97.487338 -0.212722 -20.323186 -18.066239 7.927300 -4.717970 10.935340 -3.964380 -3.750033 -9.508828 25.596258 -55.805061 138.884874 5.478733 -9.826083 17.744608 10.446252 -12.372524 -10.192996 -122.030507 3.128015 57.132577 158.541570 -16.401290 -173.379870 81.331705 -60.059862 5.708229 6.556986 -33.509751 100.713931 -153.101957 -6.939737 -104.559855 3.769521 -7.421877 -12.864230 3.519790 15.656930 -2.579330 -100.206653 78.037260 6.956344 -136.285072 -43.963659 58.491342 142.604433 7.053218 -175.472813 17.249336 -5.807781 7.641200 -9.487830 -0.205770 17.525780 
22.644440 22.717700 -25.778110 35.161538 -0.292861 -72.705871 -14.852836 11.652226 2.020888 -63.078339 21.854937 -25.531677 25.492340 2.054926 125.321731 23.941899 8.622918 -2.945295 -18.990180 9.219890 -25.559150 19.785647 -3.142758 8.126215 -57.323018 16.794458 -62.014499 76.956983 -86.794981 88.309820 -1.097414 -18.959201 -19.863562 7.467880 -6.912350 14.282920 -5.110975 -3.045584 -9.260380 36.998979 -64.669207 132.760314 5.911760 -15.631707 7.084556 3.799255 -10.157175 -8.807240 -134.329547 2.421811 61.347004 161.385830 -24.059290 -171.011760 82.157764 -63.233621 11.962381 13.872820 -33.895601 94.320634 -152.014228 -7.335539 -104.778972 2.406049 -6.838253 -13.066110 2.373480 18.507100 -1.005210 87.989053 87.057614 -163.833919 -142.651717 -41.583964 77.263419 147.090375 15.907495 -163.169680 17.248815 -10.485881 8.808100 -12.376630 -0.373490 18.969480 
23.251180 22.499960 -25.291880 24.441428 -12.621788 -74.084441 -15.621344 12.961522 3.175731 -60.286072 9.327277 -29.828589 36.679165 -13.522448 122.368450 21.804483 15.121054 -4.188593 -18.751390 2.058310 -25.585090 18.763167 -2.609157 8.460668 -50.203247 23.912975 -69.116637 71.310438 -82.510448 89.726749 -1.058465 -21.685911 -19.293254 3.223870 -2.371520 15.127120 -3.419937 -2.499634 -10.431193 72.771388 -74.454316 97.060266 -7.374188 -13.452215 30.634457 16.335203 -12.724200 -17.196238 -118.736468 -7.619613 54.315580 149.966300 -30.173450 -170.123390 79.882777 -43.634300 22.846316 29.593083 -40.886158 109.564824 -154.882473 -18.307237 -98.184847 -2.571376 -7.495054 -13.273220 2.680910 16.757090 0.273390 -109.912024 51.272361 8.453229 -103.633793 -79.222363 81.304105 167.437559 32.485216 -161.462876 11.172213 -11.384858 8.498580 -9.437160 3.479350 18.811870 
25.359270 22.770520 -23.926000 25.515223 -37.958893 -90.243029 -16.171625 10.510025 4.390616 -66.304909 -0.386098 -11.308751 13.870923 -6.259294 134.049972 20.431262 12.486759 -4.484884 -21.270360 -0.936970 -28.772890 18.627370 -2.605633 5.085853 -29.078730 36.477214 -48.239036 64.697788 -78.585775 93.451378 0.487233 -22.571283 -18.729337 3.334270 0.142260 13.182840 -1.973542 -2.068504 -13.144642 88.008844 -76.651988 79.364935 -9.375626 -13.190409 47.722075 21.477761 -10.133667 -27.932509 -112.613576 6.576684 45.093634 139.052070 -39.136450 -154.425440 79.038807 -26.799160 30.748924 59.225666 -61.917045 111.793382 -163.265235 -25.995340 -95.185272 -6.071603 -8.390928 -13.698460 3.755310 15.162520 0.014350 -116.639315 38.090021 -6.119342 -30.133959 -70.780759 81.595281 -148.389716 15.577244 -153.930748 -2.492671 -6.570773 7.310980 -7.185110 4.968590 19.326150 
21.645780 24.468840 -23.398150 127.989632 -47.020964 -126.473414 -5.159712 0.133794 -0.998612 139.150174 8.212882 163.566687 -120.260559 75.981980 -2.213844 29.094175 6.859740 -3.339048 -20.393630 7.893630 -29.903440 30.887984 4.114154 10.069116 -98.276122 84.696422 -166.166990 62.766874 -84.282137 114.459315 -1.758247 -24.134426 -22.187844 3.477040 -5.890900 16.717770 -28.131118 32.795234 -34.577729 75.420849 -56.709561 111.323279 44.122579 -52.178480 104.213665 -58.047850 -46.562026 -31.108157 -113.133989 -0.858251 107.353868 122.402650 -28.324830 -134.404720 22.381523 6.732914 -15.406933 86.200188 -14.865206 -51.831282 -162.685593 27.726030 -90.507564 5.615847 1.736501 -16.400890 1.024250 18.622480 1.032590 -170.354447 62.603480 -161.111028 33.298712 35.901238 41.641340 -153.191564 -23.933991 -142.259232 4.746333 5.442372 11.839700 -13.479740 2.478130 21.215300 
22.076010 24.322210 -23.658290 119.089644 -38.542204 -134.374433 -8.738268 2.280261 -0.878955 136.682901 16.319179 156.527459 -133.043563 49.823140 -12.793646 20.266537 8.547936 -10.033114 -20.036940 3.326090 -28.580030 27.655171 1.650690 12.866765 100.415873 83.646855 34.572064 65.319006 -82.415149 111.875411 3.027018 -32.338655 -34.845989 4.651100 -11.405370 20.159510 -18.920362 26.916180 -23.596780 85.005272 -60.941102 119.646125 48.088376 -46.992289 92.454101 -45.546710 -39.399472 -47.147276 -135.093118 4.495901 91.099172 121.787270 -39.120400 -135.470550 37.885471 16.323362 -17.318783 82.986086 -32.441765 -44.196795 -162.380908 29.002675 -80.190061 6.127510 3.478181 -13.806040 -2.023180 21.017500 -5.051630 -171.247107 70.873093 -161.272456 48.523187 65.403081 43.491743 -147.454808 -17.802724 -149.882457 7.157195 1.920762 9.406270 -20.650200 4.759130 19.875180 
